# xmcd
#
# Track frame offsets: 
#        150
#        12007
#        24893
#        36984
#        49247
#
# Disc length: 977 seconds
#
# Revision: 0
# Processed by: cddbd v1.5PL3 Copyright (c) Steve Scherf et al.
# Submitted via: ExactAudioCopy v0.95a4
#
DISCID=3103cf05
DTITLE=Junipher - Junipher (Demo 2004)
DYEAR=2004
DGENRE=Pop
TTITLE0=A Better Place
TTITLE1=Forgetfullness
TTITLE2=Please Stay Away
TTITLE3=Hard Truly Fist
TTITLE4=My Second Song
EXTD=
EXTT0=
EXTT1=
EXTT2=
EXTT3=
EXTT4=
PLAYORDER=
